<svg xmlns="http://www.w3.org/2000/svg" viewBox="0 0 600 400" width="600" height="400">
  <defs>
    <linearGradient id="bg" x1="0%" y1="0%" x2="100%" y2="100%">
      <stop offset="0%" style="stop-color:#1A1A2E"/>
      <stop offset="100%" style="stop-color:#16213E"/>
    </linearGradient>
  </defs>

  <!-- Background -->
  <rect width="600" height="400" rx="12" fill="url(#bg)"/>

  <!-- Grid lines -->
  <g stroke="#ffffff10" stroke-width="1">
    <line x1="80" y1="60" x2="80" y2="320"/>
    <line x1="80" y1="320" x2="560" y2="320"/>
    <line x1="80" y1="255" x2="560" y2="255" stroke-dasharray="4"/>
    <line x1="80" y1="190" x2="560" y2="190" stroke-dasharray="4"/>
    <line x1="80" y1="125" x2="560" y2="125" stroke-dasharray="4"/>
    <line x1="80" y1="60" x2="560" y2="60" stroke-dasharray="4"/>
  </g>

  <!-- Y-axis labels -->
  <g fill="#B0B0C0" font-family="Inter, system-ui, sans-serif" font-size="12" text-anchor="end">
    <text x="70" y="324">0</text>
    <text x="70" y="259">25</text>
    <text x="70" y="194">50</text>
    <text x="70" y="129">75</text>
    <text x="70" y="64">100</text>
  </g>

  <!-- Bars -->
  <g>
    <rect x="120" y="190" width="60" height="130" rx="4" fill="#4A90D9" opacity="0.85"/>
    <rect x="220" y="125" width="60" height="195" rx="4" fill="#5BA55B" opacity="0.85"/>
    <rect x="320" y="160" width="60" height="160" rx="4" fill="#E8873D" opacity="0.85"/>
    <rect x="420" y="95" width="60" height="225" rx="4" fill="#7B68A8" opacity="0.85"/>
  </g>

  <!-- X-axis labels -->
  <g fill="#B0B0C0" font-family="Inter, system-ui, sans-serif" font-size="12" text-anchor="middle">
    <text x="150" y="345">Group A</text>
    <text x="250" y="345">Group B</text>
    <text x="350" y="345">Group C</text>
    <text x="450" y="345">Group D</text>
  </g>

  <!-- Title -->
  <text x="300" y="30" fill="#F0F0F0" font-family="Inter, system-ui, sans-serif" font-size="14" font-weight="600" text-anchor="middle">SAMPLE DATA — REPLACE WITH YOUR CHART</text>

  <!-- Watermark -->
  <text x="300" y="385" fill="#B0B0C080" font-family="Inter, system-ui, sans-serif" font-size="10" text-anchor="middle">placeholder-chart.svg</text>
</svg>
